<?xml version="1.0" encoding="UTF-8"?>
<svg enableBackground="new 0 0 1567 451" version="1.1" viewBox="0 0 450 450" xmlns="http://www.w3.org/2000/svg" xmlns:cc="http://creativecommons.org/ns#" xmlns:dc="http://purl.org/dc/elements/1.1/" xmlns:rdf="http://www.w3.org/1999/02/22-rdf-syntax-ns#">
<path d="m90.303 393.75c-11.021-21.908-21.534-43.627-32.368-65.187-16.349-32.532-32.855-64.985-49.496-97.37-1.8804-3.6595-1.9321-6.2903-0.04446-10.038 30.527-60.608 60.922-121.28 91.097-182.07 2.5133-5.0625 5.3822-7.0279 10.907-6.5435 5.5253 0.48445 11.126 0.10634 17.7 0.10634-1.4475 3.2819-2.3704 5.6312-3.4927 7.8811-29.647 59.437-59.24 118.9-89.113 178.23-2.5572 5.0782-2.3164 8.8286 0.15808 13.729 22.281 44.121 44.309 88.371 66.735 132.85 4.6676 9.2003 8.723 18.289 13.577 26.929 1.054 1.8762 4.9666 3.0104 7.5697 3.0231 38.191 0.18781 76.382 0.12757 114.57 0.12627 2.4983-8e-5 4.9966 0 8.733 0-3.9231 8.0672-7.045 14.909-10.634 21.496-0.682 1.2517-3.2123 2.1096-4.8927 2.1142-41.23 0.11246-82.46 0.13926-123.69-0.0814-2.0151-0.0104-4.8166-1.9424-5.8832-3.7757-4.0002-6.8758-7.432-14.083-11.442-21.424z" fill="#02befb" stroke-width="1.303"/>
<path d="m337.74 63.816c-1.3743-6.6963-4.8604-8.7255-11.509-8.6648-37.555 0.34293-75.116 0.16563-112.68 0.16557-2.5371-9e-6 -5.0743-9e-6 -9.1353-9e-6 3.6905-7.8771 6.5081-14.592 10.042-20.907 0.81432-1.4552 4.0809-2.1534 6.222-2.1599 40.815-0.12319 81.631-0.15976 122.44 0.09025 2.3277 0.01424 5.3366 2.1321 6.8029 4.1579 2.4977 3.4513 4.0212 7.6076 6.3268 11.74 7.6222 15.013 14.809 29.787 22.133 44.491 21.063 42.29 42.113 84.587 63.381 126.78 2.2046 4.373 2.1575 7.6939-0.0289 12.05-30.351 60.474-60.563 121.02-90.607 181.64-2.2758 4.5925-4.9143 6.4487-9.9788 6.0775-5.7593-0.42207-11.573-0.0975-18.537-0.0975 1.5451-3.3343 2.5325-5.6236 3.6478-7.8489 29.93-59.721 59.82-119.46 89.914-179.1 2.3724-4.7014 2.6258-8.3184 0.17407-13.164-22.318-44.117-44.319-88.394-66.474-132.59-3.7756-7.5327-7.8368-14.922-12.142-22.661z" fill="#00f" stroke-width="1.303"/>
<path d="m292.16 92.847c-32.885 0.01501-65.166-0.06567-97.447-0.14466-2.5762-7e-3 -5.1525-8.31e-4 -9.0803-8.31e-4 3.8891-7.8876 7.2455-14.923 10.885-21.808 0.49513-0.93686 2.4046-1.5916 3.6604-1.5936 42.469-0.06487 84.939-0.03764 127.41 0.01041 0.58616 6.81e-4 1.1718 0.44605 2.184 0.98946 3.8426 7.2955 7.2066 14.312 10.684 21.272 21.332 42.697 42.627 85.414 64.137 128.02 2.0681 4.0968 2.2597 7.2621 0.17561 11.398-30.616 60.765-61.122 121.59-91.467 182.49-2.1658 4.3466-4.6691 6.06-9.4564 5.7236-5.7637-0.40509-11.578-0.0958-18.414-0.0958 1.3986-3.0403 2.2947-5.146 3.3174-7.1882 30.002-59.912 59.966-119.84 90.125-179.67 2.3747-4.7113 2.5906-8.3817 0.13202-13.211-18.297-35.942-36.246-72.062-54.394-108.08-2.9748-5.9037-6.3956-11.583-10.071-18.195-6.6612 0-14.217 0-22.378 0.0951z" fill="#0f0" stroke-width="1.303"/>
<path d="m108.74 356.41c-9.7767-20.021-19.127-39.717-28.782-59.262-11.03-22.328-22.228-44.576-33.619-66.722-1.9295-3.7514-1.7544-6.5261 0.08698-10.182 30.915-61.38 61.666-122.84 92.61-184.21 0.79605-1.5787 3.3001-3.1244 5.0904-3.2259 6.7003-0.37975 13.435-0.15194 21.27-0.15194-1.2499 2.7695-2.1648 4.9946-3.236 7.1415-29.916 59.955-59.792 119.93-89.888 179.8-2.1941 4.3647-2.1565 7.5488 0.04025 11.89 16.495 32.593 32.679 65.343 49.346 98.307 4.5285 8.7824 8.4148 17.445 13.024 25.703 0.95411 1.7098 4.5904 2.6968 6.996 2.7071 38.393 0.16319 76.788 0.11323 115.18 0.1118 2.3433-8e-5 4.6867-4e-5 8.4232-4e-5 -4.0236 8.0261-7.44 15.166-11.254 22.087-0.55075 0.99952-3.0098 1.324-4.5869 1.3267-40.997 0.0685-81.994 0.013-122.99 0.0907-7.0271 0.0133-6.922-6.6739-9.7804-10.307-3.3576-4.267-5.1623-9.7559-7.9323-15.106z" fill="#fdcc1c" stroke-width="1.303"/>
<path d="m129.22 323.44c-10.11-20.117-19.819-39.998-29.58-59.854-5.4145-11.014-11.114-21.894-16.222-33.047-1.116-2.4361-1.3145-6.2959-0.16218-8.6212 30.556-61.657 61.378-123.18 92.002-184.81 1.6939-3.4085 3.5545-4.7109 7.2975-4.5329 6.2264 0.29608 12.477 0.08067 19.816 0.08067-1.3469 2.9765-2.2216 5.092-3.2408 7.1354-29.892 59.927-59.763 119.87-89.784 179.72-2.0262 4.0401-2.0479 7.161 0.0511 11.237 10.601 20.585 20.844 41.354 31.537 62.357 4.1898 8.2698 7.7134 16.44 12.152 24.08 1.1882 2.0447 5.1647 3.4654 7.8712 3.4813 37.733 0.22223 75.466 0.15038 113.2 0.15024h9.4516c-4.0184 8.096-7.3788 15.207-11.152 22.094-0.55268 1.0087-3.0682 1.3147-4.6766 1.3173-40.986 0.0685-81.972 0.0865-122.96-0.0612-1.7548-7e-3 -4.2284-1.2245-5.1279-2.6566-3.6293-5.7781-6.7721-11.862-10.474-18.079z" fill="#f845da" stroke-width="1.303"/>
<path d="m250.47 130.36c-27.668 0.10111-54.733 0.10111-83.175 0.10111 3.7051-7.9293 6.519-14.896 10.263-21.321 0.97585-1.6745 4.8484-2.31 7.3956-2.322 36.436-0.17299 72.875-0.15708 109.91-0.29229 13.111-2.4656 18.345 4.5164 23.321 14.964 15.841 33.262 32.772 66.007 49.449 98.866 1.8653 3.6753 1.8774 6.4989-3e-3 10.226-30.838 61.155-61.54 122.38-92.149 183.65-1.7892 3.5814-3.8361 5.2048-7.9321 4.9782-5.9965-0.33176-12.025-0.0853-18.783-0.0853 0.57325-1.8083 0.75724-2.8102 1.1893-3.6904 14.803-30.159 29.469-60.389 44.498-90.437 15.709-31.409 31.692-62.681 47.771-93.903 2.125-4.1265 2.0706-7.313-0.0177-11.411-14.284-28.032-28.395-56.152-42.335-84.357-1.9152-3.8752-4.1004-5.3408-8.4371-5.2428-13.45 0.30383-26.91 0.15073-40.971 0.27604z" fill="#f00" stroke-width="1.303"/>
</svg>
